<?xml version="1.0" encoding="iso-8859-1"?>
<!-- Generator: Adobe Illustrator 19.0.0, SVG Export Plug-In . SVG Version: 6.00 Build 0)  -->
<svg version="1.1" id="Capa_1" xmlns="http://www.w3.org/2000/svg" xmlns:xlink="http://www.w3.org/1999/xlink" x="0px" y="0px"
	 viewBox="0 0 482.394 482.394" style="enable-background:new 0 0 482.394 482.394;" xml:space="preserve">
<path style="fill:#4398D1;" d="M16.602,48.794v41.6c0,2.4,0.8,4,2.4,5.6l40,40c1.6,1.6,3.2,2.4,5.6,2.4h64v-16h-60.8l-35.2-35.2
	v-38.4c12.8-4,19.2-18.4,14.4-30.4s-17.6-19.2-30.4-14.4s-19.2,17.6-14.4,30.4C4.602,40.794,9.402,46.394,16.602,48.794z
	 M24.602,18.394c4.8,0,8,3.2,8,8s-3.2,8-8,8s-8-3.2-8-8S19.802,18.394,24.602,18.394z"/>
<path style="fill:#87CED9;" d="M450.202,47.194v62.4l-51.2,51.2h-52.8v16h56c2.4,0,4-0.8,5.6-2.4l56-56c1.6-1.6,2.4-3.2,2.4-5.6
	v-65.6c12-4.8,18.4-18.4,14.4-31.2s-18.4-19.2-30.4-14.4s-19.2,18.4-14.4,30.4C437.402,39.194,443.002,44.794,450.202,47.194z
	 M458.202,16.794c4.8,0,8,3.2,8,8s-3.2,8-8,8s-8-3.2-8-8S453.402,16.794,458.202,16.794z"/>
<path style="fill:#4398D1;" d="M456.602,162.394c-13.6,0-24,10.4-24,24c0,4,0.8,7.2,2.4,10.4l-37.6,37.6h-92.8v16h96
	c2.4,0,4-0.8,5.6-2.4l40-40c3.2,1.6,7.2,2.4,10.4,2.4c13.6,0,24-10.4,24-24S470.202,162.394,456.602,162.394z M456.602,194.394
	c-4.8,0-8-3.2-8-8s3.2-8,8-8s8,3.2,8,8S461.402,194.394,456.602,194.394z"/>
<g>
	<path style="fill:#87CED9;" d="M24.602,186.394c10.4,0,19.2-6.4,22.4-16h38.4l53.6,53.6l11.2-11.2l-56-56c-1.6-1.6-3.2-2.4-5.6-2.4
		h-41.6c-4.8-12.8-18.4-19.2-30.4-14.4c-12.8,4.8-19.2,18.4-14.4,30.4C5.402,179.994,14.202,186.394,24.602,186.394L24.602,186.394z
		 M24.602,154.394c4.8,0,8,3.2,8,8s-3.2,8-8,8s-8-3.2-8-8S19.802,154.394,24.602,154.394z"/>
	<path style="fill:#87CED9;" d="M24.602,258.394c10.4,0,19.2-6.4,22.4-16h14.4l21.6,21.6c1.6,1.6,3.2,2.4,5.6,2.4h40v-16h-36.8
		l-21.6-21.6c-1.6-1.6-3.2-2.4-5.6-2.4h-17.6c-4.8-12.8-18.4-19.2-30.4-14.4c-12.8,4.8-19.2,18.4-14.4,30.4
		C5.402,251.994,14.202,258.394,24.602,258.394z M24.602,226.394c4.8,0,8,3.2,8,8s-3.2,8-8,8s-8-3.2-8-8
		S19.802,226.394,24.602,226.394z"/>
</g>
<path style="fill:#4398D1;" d="M24.602,362.394c12.8,0,24-10.4,24-23.2c0-1.6,0-3.2-0.8-4.8l28-28h52.8v-16h-56
	c-2.4,0-4,0.8-5.6,2.4l-27.2,27.2c-4-4-9.6-5.6-15.2-5.6c-13.6,0-24,10.4-24,24S11.002,362.394,24.602,362.394z M24.602,330.394
	c4.8,0,8,3.2,8,8s-3.2,8-8,8s-8-3.2-8-8S19.802,330.394,24.602,330.394z"/>
<g>
	<path style="fill:#87CED9;" d="M83.802,362.394h52.8v-16h-56c-2.4,0-4,0.8-5.6,2.4l-40,40c-3.2-1.6-7.2-2.4-10.4-2.4
		c-13.6,0-24,10.4-24,24s10.4,24,24,24s24-10.4,24-24c0-3.2-0.8-7.2-2.4-10.4L83.802,362.394z M24.602,418.394c-4.8,0-8-3.2-8-8
		s3.2-8,8-8s8,3.2,8,8S29.402,418.394,24.602,418.394z"/>
	<path style="fill:#87CED9;" d="M88.602,82.394c3.2,0,7.2-0.8,10.4-2.4l40,40l11.2-11.2l-40-40c1.6-3.2,2.4-7.2,2.4-10.4
		c0-13.6-10.4-24-24-24s-24,10.4-24,24S75.002,82.394,88.602,82.394z M88.602,50.394c4.8,0,8,3.2,8,8s-3.2,8-8,8s-8-3.2-8-8
		S83.802,50.394,88.602,50.394z"/>
	<path style="fill:#87CED9;" d="M299.002,124.794l11.2,11.2l48-48c1.6-1.6,2.4-3.2,2.4-5.6v-33.6c12.8-4.8,19.2-18.4,14.4-30.4
		s-17.6-19.2-30.4-14.4s-19.2,17.6-14.4,30.4c2.4,7.2,8,12,14.4,14.4v30.4L299.002,124.794z M352.602,18.394c4.8,0,8,3.2,8,8
		s-3.2,8-8,8s-8-3.2-8-8S347.802,18.394,352.602,18.394z"/>
</g>
<path style="fill:#4398D1;" d="M379.002,92.794l-48,48l11.2,11.2l48-48c3.2,1.6,6.4,2.4,10.4,2.4c13.6,0,24-10.4,24-24
	s-10.4-24-24-24s-24,10.4-24,24C376.602,85.594,377.402,89.594,379.002,92.794z M400.602,74.394c4.8,0,8,3.2,8,8s-3.2,8-8,8
	s-8-3.2-8-8S395.802,74.394,400.602,74.394z"/>
<g>
	<path style="fill:#87CED9;" d="M456.602,226.394c-13.6,0-24,10.4-24,24c0,3.2,0.8,7.2,2.4,10.4l-37.6,37.6h-52.8v16h56
		c2.4,0,4-0.8,5.6-2.4l40-40c3.2,1.6,6.4,2.4,10.4,2.4c13.6,0,24-10.4,24-24S470.202,226.394,456.602,226.394z M456.602,258.394
		c-4.8,0-8-3.2-8-8s3.2-8,8-8s8,3.2,8,8S461.402,258.394,456.602,258.394z"/>
	<path style="fill:#87CED9;" d="M456.602,402.394c-10.4,0-19.2,6.4-22.4,16h-14.4l-21.6-21.6c-1.6-1.6-3.2-2.4-5.6-2.4h-36.8
		l-45.6-45.6l-11.2,11.2l48,48c1.6,1.6,3.2,2.4,5.6,2.4h36.8l21.6,21.6c1.6,1.6,3.2,2.4,5.6,2.4h17.6c4.8,12.8,18.4,19.2,30.4,14.4
		c12.8-4.8,19.2-18.4,14.4-30.4C475.802,408.794,467.002,402.394,456.602,402.394z M456.602,434.394c-4.8,0-8-3.2-8-8s3.2-8,8-8
		s8,3.2,8,8S461.402,434.394,456.602,434.394z"/>
	<path style="fill:#87CED9;" d="M456.602,298.394c-12.8,0-24,10.4-24,23.2c0,1.6,0,3.2,0.8,4.8l-28,28h-33.6l-37.6-37.6l-11.2,11.2
		l40,40c1.6,1.6,3.2,2.4,5.6,2.4h40c2.4,0,4-0.8,5.6-2.4l27.2-27.2c4,3.2,9.6,5.6,15.2,5.6c13.6,0,24-10.4,24-24
		S470.202,298.394,456.602,298.394z M456.602,330.394c-4.8,0-8-3.2-8-8s3.2-8,8-8s8,3.2,8,8S461.402,330.394,456.602,330.394z"/>
</g>
<path style="fill:#4398D1;" d="M336.602,434.394c-3.2,0-7.2,0.8-10.4,2.4l-48-48l-11.2,11.2l48,48c-1.6,3.2-2.4,7.2-2.4,10.4
	c0,13.6,10.4,24,24,24s24-10.4,24-24S350.202,434.394,336.602,434.394z M336.602,466.394c-4.8,0-8-3.2-8-8s3.2-8,8-8s8,3.2,8,8
	S341.402,466.394,336.602,466.394z"/>
<g>
	<path style="fill:#87CED9;" d="M160.602,48.794c12.8-4.8,19.2-18.4,14.4-30.4c-4.8-12.8-18.4-19.2-30.4-14.4s-19.2,17.6-14.4,30.4
		c2.4,7.2,8,12,14.4,14.4v17.6c0,2.4,0.8,4,2.4,5.6l48,48l11.2-11.2l-45.6-45.6V48.794z M152.602,18.394c4.8,0,8,3.2,8,8s-3.2,8-8,8
		s-8-3.2-8-8S147.802,18.394,152.602,18.394z"/>
	<path style="fill:#87CED9;" d="M144.602,407.194l-29.6,29.6c-3.2-1.6-7.2-2.4-10.4-2.4c-13.6,0-24,10.4-24,24s10.4,24,24,24
		s24-10.4,24-24c0-3.2-0.8-7.2-2.4-10.4l32-32c1.6-1.6,2.4-3.2,2.4-5.6v-32h-16V407.194z M104.602,466.394c-4.8,0-8-3.2-8-8
		s3.2-8,8-8s8,3.2,8,8S109.402,466.394,104.602,466.394z"/>
</g>
<path style="fill:#FDB62F;" d="M320.602,242.394c35.2-26.4,42.4-76.8,16-112c-12-16-28.8-26.4-48-30.4v-41.6h-32v40h-32v-40h-32v40
	h-64v288h64v40h32v-40h32v40h32v-41.6c43.2-8.8,71.2-51.2,62.4-94.4C347.002,271.194,336.602,254.394,320.602,242.394z
	 M160.602,130.394h112c26.4,0,48,21.6,48,48s-21.6,48-48,48h-112V130.394z M272.602,354.394h-112v-96h112c26.4,0,48,21.6,48,48
	S299.002,354.394,272.602,354.394z"/>
<path style="fill:#FFA12E;" d="M352.602,178.394c0-13.6-3.2-26.4-9.6-38.4l-24,24c8,25.6-6.4,52-32,60c-4.8,1.6-9.6,2.4-14.4,2.4
	h-16l-32,32h48c26.4,0,48,21.6,48,48s-21.6,48-48,48h-112v-32l-32,32v32h64v40h32v-40h32v40h32v-41.6c43.2-8.8,71.2-51.2,62.4-94.4
	c-4-19.2-14.4-36.8-30.4-48C340.602,227.194,352.602,203.994,352.602,178.394z"/>
<g>
</g>
<g>
</g>
<g>
</g>
<g>
</g>
<g>
</g>
<g>
</g>
<g>
</g>
<g>
</g>
<g>
</g>
<g>
</g>
<g>
</g>
<g>
</g>
<g>
</g>
<g>
</g>
<g>
</g>
</svg>
