<?xml version="1.0" encoding="iso-8859-1"?>
<!-- Generator: Adobe Illustrator 19.0.0, SVG Export Plug-In . SVG Version: 6.00 Build 0)  -->
<svg version="1.1" id="Capa_1" xmlns="http://www.w3.org/2000/svg" xmlns:xlink="http://www.w3.org/1999/xlink" x="0px" y="0px"
	 viewBox="0 0 480 480" style="enable-background:new 0 0 480 480;" xml:space="preserve">
<g>
	<path style="fill:#FF7956;" d="M422.072,298.512L406.24,296.2c10.389-71.256-25.789-141.208-89.944-173.912l7.28-14.248
		C393.834,143.862,433.451,220.474,422.072,298.512L422.072,298.512z"/>
	<path style="fill:#FF7956;" d="M57.928,298.512c-11.379-78.038,28.238-154.65,98.496-190.472l7.28,14.248
		C99.549,154.991,63.371,224.944,73.76,296.2L57.928,298.512z"/>
	<path style="fill:#FF7956;" d="M240,456c-39.304,0.12-77.595-12.468-109.16-35.888l9.52-12.864
		c59.25,43.668,140.03,43.668,199.28,0l9.52,12.864C317.595,443.531,279.304,456.12,240,456z"/>
</g>
<g>
	<path style="fill:#FFD422;" d="M107.2,301.352c-36.818-15.022-78.842,2.647-93.865,39.465s2.647,78.842,39.465,93.865
		s78.842-2.647,93.865-39.465c3.526-8.641,5.338-17.884,5.335-27.217C152.031,338.734,134.311,312.373,107.2,301.352z"/>
	<path style="fill:#FFD422;" d="M400,296c-39.764,0-72,32.236-72,72s32.236,72,72,72s72-32.236,72-72
		c0.075-39.689-32.038-71.925-71.728-72C400.182,295.999,400.091,295.999,400,296z"/>
	<path style="fill:#FFD422;" d="M240,32c-44.183,0-80,35.817-80,80c0,1.12,0,2.16,0.08,3.2
		c1.976,44.139,39.358,78.318,83.497,76.343c41.372-1.852,74.491-34.971,76.343-76.343c0.08-1.04,0.08-2.08,0.08-3.2
		C320,67.817,284.183,32,240,32L240,32z"/>
</g>
<g>
	<path style="fill:#FFA733;" d="M400,288c-44.183,0-80,35.817-80,80s35.817,80,80,80s80-35.817,80-80
		C479.952,323.837,444.163,288.048,400,288z M400,432c-35.346,0-64-28.654-64-64s28.654-64,64-64s64,28.654,64,64
		C463.96,403.329,435.33,431.96,400,432z"/>
	<path style="fill:#FFA733;" d="M408,400c-7.723-0.026-15.17-2.871-20.944-8H416v-16h-38.864c-0.72-2.607-1.102-5.296-1.136-8h40
		v-16h-35.552c8.011-13.956,25.172-19.746,40-13.496l6.232-14.728c-24.432-10.289-52.578,1.176-62.867,25.607
		c-0.363,0.862-0.701,1.735-1.013,2.617H352v16h8c0.016,2.682,0.257,5.358,0.72,8H352v16h14.496
		c12.19,21.152,38.329,29.764,60.704,20l-6.4-14.656C416.763,399.104,412.404,400.009,408,400L408,400z"/>
	<path style="fill:#FFA733;" d="M80,288c-44.183,0-80,35.817-80,80s35.817,80,80,80s80-35.817,80-80
		C159.952,323.837,124.163,288.048,80,288z M80,432c-35.346,0-64-28.654-64-64s28.654-64,64-64s64,28.654,64,64
		C143.96,403.329,115.33,431.96,80,432z"/>
	<path style="fill:#FFA733;" d="M80,344c4.102,0.328,7.176,3.895,6.896,8h16c0.095-9.814-5.809-18.692-14.896-22.4V320H72v9.6
		c-9.087,3.708-14.991,12.586-14.896,22.4C56.822,364.941,67.06,375.672,80,376c4.418,0.657,7.467,4.772,6.81,9.19
		c-0.524,3.522-3.289,6.286-6.81,6.81c-4.102-0.328-7.176-3.895-6.896-8h-16c-0.095,9.814,5.809,18.692,14.896,22.4v9.6h16v-9.6
		c9.087-3.708,14.991-12.586,14.896-22.4c0.282-12.941-9.956-23.673-22.896-24c-4.418-0.657-7.467-4.772-6.81-9.19
		C73.714,347.288,76.479,344.523,80,344z"/>
	<path style="fill:#FFA733;" d="M32,360h16v16H32V360z"/>
	<path style="fill:#FFA733;" d="M112,360h16v16h-16V360z"/>
	<path style="fill:#FFA733;" d="M256,72h-56v80h56c13.228-0.066,23.934-10.772,24-24c0.001-5.91-2.188-11.61-6.144-16
		c3.987-4.371,6.18-10.084,6.144-16C280,82.745,269.255,72,256,72z M264,128c0.004,2.159-0.885,4.223-2.456,5.704
		c-1.46,1.486-3.461,2.315-5.544,2.296h-40V88h40c4.418,0,8,3.582,8,8c0.004,2.159-0.885,4.223-2.456,5.704
		c-1.46,1.486-3.461,2.315-5.544,2.296v16C260.418,120,264,123.581,264,128z"/>
	<path style="fill:#FFA733;" d="M240,24c-48.577,0.057-87.943,39.423-88,88c0,1.328,0,2.552,0.088,3.512
		c2.189,48.552,43.322,86.136,91.874,83.948c45.376-2.045,81.74-38.29,83.934-83.66C328,114.552,328,113.328,328,112
		C327.943,63.422,288.577,24.057,240,24z M311.928,114.888c-1.752,39.726-35.376,70.51-75.102,68.758
		c-37.38-1.648-67.267-31.652-68.77-69.038C168,113.76,168,112.904,168,112c0.018-39.764,32.269-71.985,72.033-71.967
		C279.772,40.051,311.982,72.261,312,112C312,112.904,312,113.76,311.928,114.888z"/>
	<path style="fill:#FFA733;" d="M279.088,121.8c-0.236-0.958-0.53-1.901-0.88-2.824c-0.232-0.576-0.552-1.104-0.8-1.656
		c-0.375-0.792-0.791-1.564-1.248-2.312c-0.352-0.536-0.76-1.024-1.152-1.536s-0.704-1.024-1.12-1.488
		c0.432-0.472,0.76-1.016,1.152-1.52s0.8-1,1.152-1.536c0.478-0.759,0.908-1.547,1.288-2.36c0.272-0.544,0.584-1.072,0.8-1.64
		c0.348-0.925,0.64-1.871,0.872-2.832c0.128-0.504,0.32-0.984,0.424-1.504c0.287-1.514,0.429-3.051,0.424-4.592
		c0-13.255-10.745-24-24-24h-8V56h-16v16h-8V56h-16v16h-8v80h8v16h16v-16h8v16h16v-16h8c13.219,0.035,23.964-10.653,24-23.872
		c0.004-1.609-0.154-3.214-0.472-4.792C279.424,122.808,279.2,122.32,279.088,121.8L279.088,121.8z M264,96
		c0.004,2.159-0.885,4.223-2.456,5.704c-1.46,1.486-3.461,2.315-5.544,2.296h-40V88h40C260.418,88,264,91.581,264,96z
		 M261.544,133.704c-1.46,1.486-3.461,2.315-5.544,2.296h-40v-16h40c4.418,0,8,3.582,8,8
		C264.004,130.159,263.115,132.223,261.544,133.704z"/>
	<path style="fill:#FFA733;" d="M384,273.6l-16-0.264V272c0.002-4.575-0.239-9.147-0.72-13.696l15.904-1.688
		c0.546,5.11,0.818,10.245,0.816,15.384V273.6z M364.8,243.512c-1.119-4.897-2.524-9.724-4.208-14.456l15.08-5.36
		c1.889,5.319,3.465,10.745,4.72,16.248L364.8,243.512z M354.736,215.2c-2.227-4.491-4.719-8.846-7.464-13.04l13.408-8.752
		c3.085,4.73,5.89,9.637,8.4,14.696L354.736,215.2z M338.32,190.024c-3.218-3.856-6.664-7.516-10.32-10.96l11-11.624
		c4.101,3.88,7.969,7.999,11.584,12.336L338.32,190.024z"/>
	<path style="fill:#FFA733;" d="M112,269.736l-16-0.28c0.099-5.649,0.526-11.288,1.28-16.888l15.864,2.16
		C112.468,259.703,112.086,264.715,112,269.736z M116,239.952l-15.488-4c1.412-5.472,3.148-10.855,5.2-16.12l14.904,5.792
		C118.799,230.305,117.258,235.09,116,239.952z M126.888,211.952l-14.088-7.528c2.654-4.965,5.592-9.773,8.8-14.4l13.144,9.128
		c-2.861,4.107-5.474,8.381-7.824,12.8L126.888,211.952z M144.032,187.264l-12-10.592c3.751-4.231,7.747-8.238,11.968-12
		l10.656,11.92c-3.734,3.349-7.271,6.913-10.592,10.672H144.032z"/>
	<path style="fill:#FFA733;" d="M240.392,415.928H240c-5.512,0.002-11.02-0.31-16.496-0.936l1.832-15.888
		c4.869,0.541,9.765,0.808,14.664,0.8L240.392,415.928z M257.304,414.904l-1.92-15.888c4.982-0.601,9.924-1.496,14.8-2.68
		l3.784,15.544C268.477,413.21,262.913,414.22,257.304,414.904L257.304,414.904z M206.832,412.072
		c-5.503-1.3-10.923-2.927-16.232-4.872l5.504-15.032c4.711,1.727,9.519,3.175,14.4,4.336L206.832,412.072z M290.152,406.912
		l-5.6-14.984c4.698-1.758,9.287-3.794,13.744-6.096l7.344,14.224C300.619,402.649,295.447,404.938,290.152,406.912L290.152,406.912
		z M175.064,400.416c-5.025-2.567-9.897-5.422-14.592-8.552l8.872-13.312c4.178,2.786,8.513,5.329,12.984,7.616L175.064,400.416z"/>
</g>
<g>
	<path style="fill:#FF9811;" d="M424,104c0,0,0,40,40,40c0,0-40,0-40,40c0,0,0-40-40-40C384,144,424,144,424,104z"/>
	<path style="fill:#FF9811;" d="M72,56c0,0,0,40,40,40c0,0-40,0-40,40c0,0,0-40-40-40C32,96,72,96,72,56z"/>
</g>
<g>
</g>
<g>
</g>
<g>
</g>
<g>
</g>
<g>
</g>
<g>
</g>
<g>
</g>
<g>
</g>
<g>
</g>
<g>
</g>
<g>
</g>
<g>
</g>
<g>
</g>
<g>
</g>
<g>
</g>
</svg>
