<?xml version="1.0" encoding="iso-8859-1"?>
<!-- Generator: Adobe Illustrator 19.0.0, SVG Export Plug-In . SVG Version: 6.00 Build 0)  -->
<svg version="1.1" id="Capa_1" xmlns="http://www.w3.org/2000/svg" xmlns:xlink="http://www.w3.org/1999/xlink" x="0px" y="0px"
	 viewBox="0 0 472 472" style="enable-background:new 0 0 472 472;" xml:space="preserve">
<circle style="fill:#FDB62F;" cx="235.95" cy="136" r="128"/>
<circle style="fill:#FFA12E;" cx="235.95" cy="136" r="96"/>
<g>
	<path style="fill:#F46B27;" d="M243.95,192v16h16v-17.1c17.1-4.4,27.4-21.7,23-38.8c-1.6-6.2-5-11.8-9.9-16.1
		c13.2-11.6,14.6-31.8,2.9-45c-4.2-4.8-9.8-8.3-16.1-9.9V64h-16v16h-16V64h-16v16h-16c-4.4,0-8,3.6-8,8v96c0,4.4,3.6,8,8,8h16v16h16
		v-16H243.95z M203.95,96h48c8.8,0,16,7.2,16,16s-7.2,16-16,16h-48V96z M203.95,144h48c8.8,0,16,7.2,16,16s-7.2,16-16,16h-48V144z"
		/>
	<path style="fill:#F46B27;" d="M235.95,32c-57.4,0.1-103.9,46.6-104,104h16c0.1-48.6,39.4-87.9,88-88V32z"/>
	<path style="fill:#F46B27;" d="M323.95,136c-0.1,48.6-39.4,87.9-88,88v16c57.4-0.1,103.9-46.6,104-104H323.95z"/>
</g>
<path style="fill:#FDB62F;" d="M75.95,0c0,22.1-17.9,40-40,40c22.1,0,40,17.9,40,40c0-22.1,17.9-40,40-40
	C93.85,40,75.95,22.1,75.95,0z"/>
<path id="SVGCleanerId_0" style="fill:#3E8CC7;" d="M83.95,408h112v64h-112V408z"/>
<g>
	<path id="SVGCleanerId_0_1_" style="fill:#3E8CC7;" d="M83.95,408h112v64h-112V408z"/>
</g>
<path style="fill:#126099;" d="M155.95,432h16v16h-16V432z"/>
<path style="fill:#FEC9A3;" d="M140.35,272.2l-0.4-0.2l-56.1-62.3c-8.3-9.2-22.5-10-31.8-1.7c0,0,0,0-0.1,0.1l0-0.1V96
	c0-13.3-10.7-24-24-24s-24,10.7-24,24v168l80,144h112v-40C195.95,328.4,174.75,291.9,140.35,272.2z"/>
<path style="fill:#F7B788;" d="M115.75,312.2c-3.1,2.9-8,2.6-10.9-0.5l0,0l-60.4-66.4c-8.4-9.2-10.3-22.5-5-33.7
	c1.9-3.8,6.6-5.4,10.4-3.4c0.8,0.4,1.4,0.9,2,1.5l0.4,0.4c2.3,2.5,2.8,6.1,1.3,9.1c-2.2,5.2-1.2,11.2,2.7,15.4l60.4,66.4
	c2.9,3.1,2.6,8-0.5,10.9l0,0L115.75,312.2z"/>
<g>
	<path style="fill:#3E8CC7;" d="M387.95,472h-112v-64h112V472z"/>
	<path style="fill:#3E8CC7;" d="M275.95,408h112v64h-112V408z"/>
</g>
<path style="fill:#126099;" d="M299.95,432h16v16h-16V432z"/>
<path style="fill:#FEC9A3;" d="M331.55,272.2l0.4-0.2l56.1-62.3c8.3-9.2,22.5-10,31.8-1.7c0,0,0,0,0.1,0.1l0.1-0.1V96
	c0-13.3,10.7-24,24-24s24,10.7,24,24v168l-80,144h-112.1v-40C275.95,328.4,297.15,291.9,331.55,272.2z"/>
<path style="fill:#F7B788;" d="M356.15,312.2c3.1,2.9,8,2.6,10.9-0.5l0,0l60.4-66.4c8.4-9.2,10.3-22.5,5-33.7
	c-1.9-3.8-6.6-5.4-10.4-3.4c-0.8,0.4-1.4,0.9-2,1.5l-0.4,0.4c-2.3,2.5-2.8,6.1-1.3,9.1c2.2,5.2,1.2,11.2-2.7,15.4l-60.5,66.4
	c-2.9,3.1-2.6,8,0.5,10.9l0,0L356.15,312.2z"/>
<g>
</g>
<g>
</g>
<g>
</g>
<g>
</g>
<g>
</g>
<g>
</g>
<g>
</g>
<g>
</g>
<g>
</g>
<g>
</g>
<g>
</g>
<g>
</g>
<g>
</g>
<g>
</g>
<g>
</g>
</svg>
