<?xml version="1.0" encoding="utf-8"?>
<!-- Generator: Adobe Illustrator 15.0.0, SVG Export Plug-In . SVG Version: 6.00 Build 0)  -->
<!DOCTYPE svg PUBLIC "-//W3C//DTD SVG 1.1//EN" "http://www.w3.org/Graphics/SVG/1.1/DTD/svg11.dtd">
<svg version="1.1" id="Layer_1" xmlns="http://www.w3.org/2000/svg" xmlns:xlink="http://www.w3.org/1999/xlink" x="0px" y="0px"
	 width="40px" height="40px" viewBox="0 0 40 40" enable-background="new 0 0 40 40" xml:space="preserve">
<path fill="#01e8fe" d="M13.123,27.318c1.647,2.303,3.292,4.362,4.382,5.689c0.159,0.193,0.308,0.372,0.452,0.544h-3.29
	c-0.368,0-0.667,0.296-0.667,0.661s0.298,0.661,0.667,0.661h10.667c0.368,0,0.667-0.296,0.667-0.661s-0.298-0.661-0.667-0.661
	h-3.289c0.144-0.172,0.292-0.351,0.452-0.544c1.089-1.322,2.733-3.386,4.381-5.689c1.635-2.239,3.107-4.591,4.404-7.037
	c1.361-2.65,2.052-4.851,2.052-6.541c0.004-3.51-1.4-6.878-3.905-9.36C29.262,4.208,29.014,4.139,28.78,4.2
	c-0.233,0.06-0.415,0.24-0.476,0.472c-0.062,0.231,0.008,0.477,0.181,0.643C30.739,7.548,32.004,10.58,32,13.74
	c0,1.479-0.641,3.478-1.907,5.94c-1.268,2.39-2.706,4.687-4.304,6.874c-1.625,2.273-3.25,4.31-4.327,5.619
	c-0.358,0.435-0.68,0.819-0.955,1.145c-0.128,0.145-0.313,0.228-0.508,0.228c-0.195,0-0.38-0.083-0.508-0.228
	c-0.274-0.326-0.596-0.71-0.955-1.145c-1.077-1.308-2.701-3.345-4.326-5.619c-1.598-2.187-3.036-4.484-4.304-6.874
	C8.641,17.218,8,15.22,8,13.74c0-4.788,2.888-9.111,7.333-10.979c2.987-1.242,6.353-1.242,9.34,0
	c0.219,0.092,0.472,0.061,0.662-0.081c0.19-0.143,0.29-0.375,0.26-0.609c-0.029-0.234-0.182-0.436-0.401-0.528
	C18.405-1.295,10.581,1.858,7.715,8.588c-0.695,1.63-1.051,3.382-1.048,5.152c0,1.689,0.69,3.89,2.052,6.543
	C10.017,22.729,11.488,25.08,13.123,27.318z"/>
<path fill="#01e8fe" d="M20,7.774c0.368,0,0.667-0.296,0.667-0.661S20.368,6.452,20,6.452c-3.18,0-5.918,2.228-6.538,5.32
	c-0.621,3.093,1.049,6.189,3.987,7.396c2.938,1.207,6.327,0.188,8.094-2.434c1.767-2.622,1.42-6.116-0.829-8.346
	c-0.167-0.172-0.415-0.241-0.648-0.181c-0.233,0.061-0.415,0.241-0.476,0.472c-0.061,0.231,0.008,0.477,0.182,0.643
	c1.799,1.784,2.077,4.579,0.664,6.677c-1.414,2.098-4.125,2.913-6.476,1.948s-3.686-3.442-3.19-5.917
	C15.266,9.556,17.456,7.774,20,7.774z"/>
<path fill="#01e8fe" d="M39.749,36.573l-4.1-7.271c-0.371-0.646-1.064-1.043-1.814-1.039h-4.751c-0.368,0-0.667,0.296-0.667,0.661
	s0.299,0.661,0.667,0.661h4.751c0.267-0.005,0.516,0.132,0.651,0.361l4.099,7.271c0.112,0.189,0.109,0.424-0.006,0.611
	c-0.136,0.223-0.382,0.356-0.646,0.351H2.067c-0.263,0.006-0.509-0.128-0.645-0.351c-0.115-0.187-0.117-0.422-0.006-0.611
	l4.099-7.271c0.135-0.228,0.384-0.366,0.65-0.361h4.751c0.368,0,0.667-0.296,0.667-0.661s-0.298-0.661-0.667-0.661H6.166
	c-0.75-0.005-1.444,0.392-1.815,1.039l-4.099,7.271c-0.342,0.598-0.334,1.333,0.021,1.924c0.374,0.629,1.059,1.012,1.795,1.003
	h35.866c0.736,0.009,1.421-0.374,1.795-1.003C40.083,37.906,40.09,37.171,39.749,36.573z"/>
<path fill="#01e8fe" d="M32.667,31.568H30c-0.132,0-0.26,0.04-0.37,0.111l-2,1.322c-0.307,0.202-0.389,0.613-0.185,0.917
	c0.205,0.304,0.619,0.386,0.925,0.183l1.83-1.21h2.466c0.368,0,0.667-0.296,0.667-0.662S33.035,31.568,32.667,31.568z"/>
<path fill="#01e8fe" d="M28.667,36.195c0,0.365,0.298,0.661,0.667,0.661h5.333c0.368,0,0.667-0.296,0.667-0.661
	c0-0.365-0.299-0.661-0.667-0.661h-5.333C28.965,35.535,28.667,35.831,28.667,36.195z"/>
<path fill="#01e8fe" d="M12,34.212c0.294,0,0.553-0.19,0.639-0.469c0.085-0.278-0.023-0.58-0.268-0.742l-2-1.322
	c-0.11-0.072-0.239-0.111-0.371-0.111H7.334c-0.368,0-0.667,0.296-0.667,0.661s0.299,0.661,0.667,0.661H9.8l1.832,1.211
	C11.741,34.173,11.87,34.212,12,34.212z"/>
<path fill="#01e8fe" d="M5.334,35.535c-0.368,0-0.667,0.296-0.667,0.661c0,0.365,0.298,0.661,0.667,0.661h5.333
	c0.368,0,0.667-0.296,0.667-0.661c0-0.365-0.299-0.661-0.667-0.661H5.334z"/>
</svg>
