<?xml version="1.0" encoding="utf-8"?>
<!-- Generator: Adobe Illustrator 15.0.0, SVG Export Plug-In . SVG Version: 6.00 Build 0)  -->
<!DOCTYPE svg PUBLIC "-//W3C//DTD SVG 1.1//EN" "http://www.w3.org/Graphics/SVG/1.1/DTD/svg11.dtd">
<svg version="1.1" id="Layer_1" xmlns="http://www.w3.org/2000/svg" xmlns:xlink="http://www.w3.org/1999/xlink" x="0px" y="0px"
	 width="40px" height="40px" viewBox="0 0 40 40" enable-background="new 0 0 40 40" xml:space="preserve">
<path fill="#01e8fe" d="M38.992,15.396c-0.004-0.045-0.013-0.089-0.027-0.132c-0.009-0.038-0.021-0.076-0.037-0.111
	c-0.019-0.036-0.041-0.069-0.065-0.1c-0.025-0.037-0.054-0.07-0.086-0.101c-0.01-0.009-0.015-0.021-0.026-0.031L32.5,10.063V5.029
	c0-1.078-0.873-1.951-1.95-1.951h-7.044l-2.82-2.191c-0.697-0.544-1.674-0.544-2.371,0l-2.821,2.191H8.448
	c-1.077,0-1.95,0.874-1.95,1.951v5.035l-6.249,4.857c-0.011,0.009-0.016,0.022-0.026,0.031c-0.032,0.031-0.061,0.064-0.086,0.101
	c-0.025,0.031-0.046,0.064-0.065,0.1c-0.016,0.036-0.028,0.073-0.037,0.111c-0.013,0.042-0.022,0.086-0.026,0.13
	C0.008,15.408,0,15.419,0,15.433v22.115c0.001,0.414,0.135,0.816,0.381,1.148c0.004,0.005,0.005,0.013,0.009,0.018
	s0.014,0.011,0.021,0.018c0.365,0.481,0.933,0.764,1.537,0.767H37.05c0.606-0.001,1.176-0.287,1.542-0.77
	c0.005-0.006,0.013-0.008,0.018-0.015c0.004-0.006,0.005-0.013,0.009-0.018c0.247-0.332,0.381-0.735,0.382-1.148V15.435
	C39,15.421,38.993,15.41,38.992,15.396z M19.109,1.913c0.227-0.181,0.548-0.181,0.775,0l1.5,1.165h-3.77L19.109,1.913z
	 M2.112,38.199l16.997-13.21c0.227-0.18,0.548-0.18,0.775,0l17.002,13.21H2.112z M37.7,37.185L20.685,23.962
	c-0.697-0.543-1.674-0.543-2.371,0L1.298,37.185v-20.76l10.652,8.277c0.284,0.22,0.692,0.168,0.912-0.116
	c0.22-0.284,0.168-0.693-0.115-0.913L1.925,15.266l4.573-3.556v5.026c0,0.359,0.291,0.65,0.65,0.65c0.359,0,0.65-0.292,0.65-0.65
	V5.028c0-0.359,0.291-0.65,0.65-0.65h22.101c0.359,0,0.65,0.291,0.65,0.65v11.708c0,0.359,0.291,0.65,0.65,0.65
	c0.359,0,0.65-0.292,0.65-0.65V11.71l4.573,3.556l-10.84,8.423c-0.187,0.142-0.283,0.373-0.252,0.604
	c0.031,0.232,0.184,0.43,0.401,0.518c0.217,0.087,0.465,0.052,0.648-0.094L37.7,16.425V37.185L37.7,37.185z"/>
<path fill="#01e8fe" d="M27.299,16.085v-2.602c0-4.311-3.492-7.805-7.8-7.805s-7.8,3.495-7.8,7.805s3.492,7.805,7.8,7.805
	c0.359,0,0.65-0.291,0.65-0.65s-0.291-0.65-0.65-0.65c-3.59,0-6.5-2.912-6.5-6.504s2.91-6.504,6.5-6.504c3.59,0,6.5,2.912,6.5,6.504
	v2.602c0,0.718-0.582,1.301-1.3,1.301c-0.718,0-1.3-0.583-1.3-1.301v-2.602c0-0.359-0.291-0.65-0.65-0.65s-0.65,0.291-0.65,0.65
	c0,1.437-1.164,2.602-2.6,2.602s-2.6-1.165-2.6-2.602c0-1.437,1.164-2.602,2.6-2.602c0.359,0,0.65-0.291,0.65-0.65
	s-0.291-0.65-0.65-0.65c-1.746-0.004-3.281,1.153-3.76,2.833c-0.479,1.68,0.217,3.473,1.702,4.391s3.399,0.735,4.686-0.445
	c0.142,1.375,1.336,2.398,2.716,2.325C26.223,18.611,27.304,17.468,27.299,16.085z"/>
</svg>
