<?xml version="1.0" encoding="utf-8"?>
<!-- Generator: Adobe Illustrator 15.0.0, SVG Export Plug-In . SVG Version: 6.00 Build 0)  -->
<!DOCTYPE svg PUBLIC "-//W3C//DTD SVG 1.1//EN" "http://www.w3.org/Graphics/SVG/1.1/DTD/svg11.dtd">
<svg version="1.1" id="Layer_1" xmlns="http://www.w3.org/2000/svg" xmlns:xlink="http://www.w3.org/1999/xlink" x="0px" y="0px"
	 width="40px" height="40px" viewBox="0 0 40 40" enable-background="new 0 0 40 40" xml:space="preserve">
<path fill="#01e8fe" d="M30,0.5H10c-1.104,0-2,0.896-2,2v36c0,1.104,0.896,2,2,2h20c1.104,0,2-0.896,2-2v-36
	C32,1.396,31.104,0.5,30,0.5z M30.667,5.833H15.333c-0.368,0-0.667,0.299-0.667,0.667c0,0.368,0.299,0.667,0.667,0.667h15.333v26h-2
	c-0.368,0-0.667,0.298-0.667,0.667c0,0.368,0.298,0.667,0.667,0.667h2v4c0,0.368-0.299,0.667-0.667,0.667H10
	c-0.368,0-0.667-0.298-0.667-0.667v-4h15.333c0.368,0,0.667-0.299,0.667-0.667c0-0.369-0.299-0.667-0.667-0.667H9.333v-26h2
	C11.702,7.167,12,6.868,12,6.5c0-0.368-0.298-0.667-0.667-0.667h-2V2.5c0-0.368,0.298-0.667,0.667-0.667h20
	c0.368,0,0.667,0.299,0.667,0.667V5.833z"/>
<path fill="#01e8fe" d="M20.667,36.5h-1.333c-0.368,0-0.667,0.298-0.667,0.667s0.299,0.667,0.667,0.667h1.333
	c0.368,0,0.667-0.298,0.667-0.667S21.035,36.5,20.667,36.5z"/>
<path fill="#01e8fe" d="M13.522,11.37l-1.519,0.91c-0.559,0.33-0.968,0.862-1.142,1.487c-0.572,2.086-0.165,5.661,5.023,10.849
	c4.108,4.107,7.205,5.217,9.352,5.217c0.505,0.002,1.009-0.063,1.498-0.195c0.624-0.174,1.156-0.583,1.485-1.142l0.913-1.518
	c0.393-0.651,0.203-1.496-0.431-1.917l-3.636-2.42c-0.622-0.41-1.454-0.274-1.913,0.311l-1.057,1.359
	c-0.025,0.035-0.072,0.046-0.111,0.026l-0.2-0.111c-1.156-0.631-2.199-1.451-3.085-2.426c-0.975-0.886-1.794-1.929-2.426-3.085
	l-0.111-0.204c-0.02-0.038-0.009-0.085,0.026-0.11l1.359-1.057c0.585-0.459,0.72-1.292,0.31-1.913l-2.42-3.631
	C15.018,11.168,14.174,10.979,13.522,11.37z M14.329,12.54l1.316,1.975l1.104,1.652c0.025,0.04,0.017,0.092-0.02,0.122l-1.359,1.057
	c-0.557,0.427-0.716,1.199-0.372,1.811l0.105,0.194c0.69,1.269,1.587,2.415,2.654,3.389c0.975,1.067,2.12,1.964,3.389,2.654
	l0.193,0.105c0.613,0.344,1.384,0.185,1.812-0.372l1.057-1.358c0.029-0.037,0.082-0.046,0.122-0.021l3.629,2.419
	c0.041,0.027,0.053,0.081,0.027,0.122l-0.91,1.518c-0.153,0.264-0.402,0.458-0.695,0.542c-1.431,0.394-4.569,0.308-9.554-4.677
	c-4.985-4.985-5.072-8.125-4.68-9.554c0.084-0.292,0.279-0.542,0.542-0.694l1.517-0.91c0.014-0.009,0.03-0.014,0.047-0.013
	C14.285,12.5,14.313,12.515,14.329,12.54z"/>
</svg>
