<?xml version="1.0" encoding="utf-8"?>
<!-- Generator: Adobe Illustrator 15.0.0, SVG Export Plug-In . SVG Version: 6.00 Build 0)  -->
<!DOCTYPE svg PUBLIC "-//W3C//DTD SVG 1.1//EN" "http://www.w3.org/Graphics/SVG/1.1/DTD/svg11.dtd">
<svg version="1.1" id="Layer_1" xmlns="http://www.w3.org/2000/svg" xmlns:xlink="http://www.w3.org/1999/xlink" x="0px" y="0px"
	 width="52px" height="52px" viewBox="0 0 52 52" enable-background="new 0 0 52 52" xml:space="preserve">
<path fill="#01e8fe" d="M6.066,3.466c-1.436,0-2.6,1.164-2.6,2.6c0,1.436,1.164,2.6,2.6,2.6s2.6-1.164,2.6-2.6
	C8.667,4.63,7.502,3.466,6.066,3.466z M6.066,6.933C5.588,6.933,5.2,6.545,5.2,6.066S5.588,5.2,6.066,5.2
	c0.479,0,0.867,0.388,0.867,0.867S6.545,6.933,6.066,6.933z"/>
<path fill="#01e8fe" d="M13,5.2h-1.733c-0.479,0-0.867,0.388-0.867,0.867c0,0.479,0.388,0.867,0.867,0.867H13
	c0.479,0,0.867-0.388,0.867-0.867C13.867,5.587,13.479,5.2,13,5.2z"/>
<path fill="#01e8fe" d="M18.2,5.2h-1.733c-0.479,0-0.867,0.388-0.867,0.867c0,0.479,0.388,0.867,0.867,0.867H18.2
	c0.479,0,0.866-0.388,0.866-0.867C19.066,5.587,18.679,5.2,18.2,5.2z"/>
<path fill="#01e8fe" d="M6.066,19.066c-1.436,0-2.6,1.164-2.6,2.6c0,1.436,1.164,2.6,2.6,2.6s2.6-1.164,2.6-2.6
	C8.667,20.23,7.502,19.066,6.066,19.066z M6.066,22.533c-0.479,0-0.866-0.388-0.866-0.867c0-0.479,0.388-0.867,0.866-0.867
	c0.479,0,0.867,0.388,0.867,0.867S6.545,22.533,6.066,22.533z"/>
<path fill="#01e8fe" d="M13,20.799h-1.733c-0.479,0-0.867,0.388-0.867,0.867c0,0.479,0.388,0.867,0.867,0.867H13
	c0.479,0,0.867-0.388,0.867-0.867C13.867,21.188,13.479,20.799,13,20.799z"/>
<path fill="#01e8fe" d="M18.2,20.799h-1.733c-0.479,0-0.867,0.388-0.867,0.867c0,0.479,0.388,0.867,0.867,0.867H18.2
	c0.479,0,0.866-0.388,0.866-0.867C19.066,21.188,18.679,20.799,18.2,20.799z"/>
<path fill="#01e8fe" d="M6.066,34.667c-1.436,0-2.6,1.164-2.6,2.6c0,1.436,1.164,2.6,2.6,2.6s2.6-1.164,2.6-2.6
	C8.667,35.831,7.502,34.667,6.066,34.667z M6.066,38.133c-0.479,0-0.866-0.388-0.866-0.867c0-0.479,0.388-0.867,0.866-0.867
	c0.479,0,0.867,0.388,0.867,0.867C6.933,37.745,6.545,38.133,6.066,38.133z"/>
<path fill="#01e8fe" d="M13,36.399h-1.733c-0.479,0-0.867,0.388-0.867,0.867c0,0.479,0.388,0.867,0.867,0.867H13
	c0.479,0,0.867-0.388,0.867-0.867C13.867,36.787,13.479,36.399,13,36.399z"/>
<path fill="#01e8fe" d="M18.2,36.399h-1.733c-0.479,0-0.867,0.388-0.867,0.867c0,0.479,0.388,0.867,0.867,0.867H18.2
	c0.479,0,0.866-0.388,0.866-0.867C19.066,36.787,18.679,36.399,18.2,36.399z"/>
<path fill="#01e8fe" d="M49.4,19.066h-6.066V18.2c0-1.436-1.164-2.6-2.6-2.6h-2.6v-3.466h2.6c1.436,0,2.6-1.164,2.6-2.6V2.6
	c0-1.436-1.164-2.6-2.6-2.6H2.6C1.164,0,0,1.163,0,2.6v6.934c0,1.436,1.164,2.6,2.6,2.6h2.6V15.6H2.6c-1.436,0-2.6,1.164-2.6,2.6
	v6.933c0,1.436,1.164,2.6,2.6,2.6h2.6V31.2H2.6c-1.436,0-2.6,1.164-2.6,2.6v6.933c0,1.436,1.164,2.6,2.6,2.6h16.466V46.8h-18.2
	C0.388,46.8,0,47.188,0,47.666c0,0.479,0.388,0.867,0.867,0.867H33.8c0.017,0,0.031-0.009,0.046-0.01
	c0.7,0.619,1.432,1.201,2.193,1.743H0.867C0.388,50.266,0,50.654,0,51.133S0.388,52,0.867,52H39
	c0.103-0.002,0.204-0.023,0.299-0.061c0.023-0.008,0.046-0.018,0.068-0.028c0.021-0.007,0.041-0.015,0.06-0.024
	C51.857,44.833,52,33.262,52,32.772V21.666C52,20.23,50.836,19.066,49.4,19.066z M2.6,10.4c-0.479,0-0.867-0.389-0.867-0.867V2.6
	c0-0.479,0.388-0.867,0.867-0.867h38.133c0.479,0,0.867,0.388,0.867,0.867v6.934c0,0.478-0.388,0.867-0.867,0.867H2.6z M36.4,12.133
	V15.6H6.933v-3.466H36.4z M2.6,26c-0.479,0-0.867-0.388-0.867-0.867V18.2c0-0.479,0.388-0.866,0.867-0.866h38.133
	c0.479,0,0.867,0.388,0.867,0.866v0.867h-13c-1.436,0-2.6,1.164-2.6,2.6V26H2.6z M26,27.733V31.2H6.933v-3.467H26L26,27.733z
	 M2.6,41.6c-0.479,0-0.867-0.388-0.867-0.867V33.8c0-0.479,0.388-0.867,0.867-0.867H26c0.182,3.029,1.009,5.984,2.427,8.667H2.6z
	 M22.533,46.8H20.8v-3.467h1.733V46.8z M24.267,46.8v-3.467h5.156c0.776,1.235,1.665,2.396,2.656,3.467H24.267z M50.267,32.771
	c0,0.443-0.167,10.805-11.267,17.361c-11.101-6.557-11.267-16.918-11.267-17.36V21.666c0-0.479,0.388-0.867,0.867-0.867h20.8
	c0.479,0,0.867,0.388,0.867,0.867V32.771L50.267,32.771z"/>
<path fill="#01e8fe" d="M46.8,22.533c-0.479,0-0.867,0.388-0.867,0.866c0,0.479,0.388,0.867,0.867,0.867v8.494
	c-0.005,0.327-0.21,8.071-8.288,13.578c-0.266,0.17-0.417,0.471-0.396,0.786c0.021,0.314,0.21,0.593,0.496,0.727
	c0.285,0.134,0.621,0.103,0.876-0.082c8.813-6.007,9.041-14.621,9.045-14.998v-8.505C48.533,23.309,47.757,22.533,46.8,22.533z"/>
<path fill="#01e8fe" d="M31.2,32.772v-8.505h9.534c0.479,0,0.867-0.388,0.867-0.867c0-0.479-0.388-0.867-0.867-0.867H31.2
	c-0.957,0-1.733,0.776-1.733,1.733v8.505c0.244,3.546,1.504,6.946,3.631,9.793c0.182,0.25,0.484,0.385,0.792,0.353
	c0.308-0.032,0.576-0.226,0.702-0.509c0.126-0.282,0.092-0.611-0.089-0.862C32.595,38.992,31.451,35.95,31.2,32.772z"/>
<path fill="#01e8fe" d="M44.813,28.746c-0.338-0.339-0.887-0.339-1.225,0l-6.429,6.429l-1.012-1.013
	c-0.34-0.328-0.88-0.323-1.215,0.011c-0.334,0.334-0.339,0.875-0.011,1.215l1.625,1.625c0.338,0.338,0.887,0.338,1.226,0
	l7.042-7.042C45.151,29.632,45.151,29.083,44.813,28.746z"/>
</svg>
