<?xml version="1.0" encoding="utf-8"?>
<!-- Generator: Adobe Illustrator 15.0.0, SVG Export Plug-In . SVG Version: 6.00 Build 0)  -->
<!DOCTYPE svg PUBLIC "-//W3C//DTD SVG 1.1//EN" "http://www.w3.org/Graphics/SVG/1.1/DTD/svg11.dtd">
<svg version="1.1" id="Layer_1" xmlns="http://www.w3.org/2000/svg" xmlns:xlink="http://www.w3.org/1999/xlink" x="0px" y="0px"
	 width="52px" height="52px" viewBox="0 0 52 52" enable-background="new 0 0 52 52" xml:space="preserve">
<path fill="#01e8fe" d="M22.533,16.466c-1.434,0-2.6,1.167-2.6,2.6h1.733c0-0.478,0.388-0.867,0.867-0.867s0.867,0.389,0.867,0.867
	h1.733C25.133,17.633,23.967,16.466,22.533,16.466z"/>
<path fill="#01e8fe" d="M29.467,16.466c-1.434,0-2.6,1.167-2.6,2.6H28.6c0-0.478,0.388-0.867,0.867-0.867s0.867,0.389,0.867,0.867
	h1.733C32.066,17.633,30.9,16.466,29.467,16.466z"/>
<path fill="#01e8fe" d="M26,39.866c-1.912,0-3.467,1.555-3.467,3.467S24.088,46.8,26,46.8s3.467-1.555,3.467-3.467
	S27.912,39.866,26,39.866z M26,45.066c-0.956,0-1.733-0.778-1.733-1.733c0-0.956,0.777-1.733,1.733-1.733s1.733,0.777,1.733,1.733
	C27.733,44.289,26.956,45.066,26,45.066z"/>
<path fill="#01e8fe" d="M46.8,50.266V39c0-7.168-5.832-13-13-13h-0.944c0.309-0.271,0.599-0.561,0.874-0.867h0.937
	c2.39,0,4.333-1.944,4.333-4.333v-1.527c1.044-0.7,1.733-1.891,1.733-3.24c0-1.354-0.694-2.546-1.744-3.246
	C38.875,5.718,33.097,0,26,0S13.125,5.718,13.01,12.787c-1.049,0.7-1.744,1.892-1.744,3.246c0,2.15,1.75,3.9,3.9,3.9h0.59
	c0.406,2.401,1.633,4.522,3.388,6.066H18.2c-7.168,0-13,5.832-13,13v11.267H0V52h6.066H10.4h31.2h4.333H52v-1.733H46.8z
	 M37.267,20.799c0,1.315-0.984,2.393-2.252,2.564c0.601-1.044,1.022-2.201,1.229-3.431h0.59c0.148,0,0.289-0.028,0.433-0.044V20.799
	z M39,16.033c0,1.195-0.972,2.167-2.167,2.167H36.4v-4.333h0.434C38.028,13.866,39,14.839,39,16.033z M15.6,18.2h-0.434
	C13.972,18.2,13,17.228,13,16.033c0-1.194,0.972-2.167,2.167-2.167H15.6V18.2z M15.167,12.133c-0.134,0-0.261,0.026-0.392,0.04
	C15.201,6.346,20.067,1.733,26,1.733s10.799,4.613,11.225,10.44c-0.131-0.014-0.257-0.04-0.392-0.04h-0.59
	C35.415,7.222,31.143,3.466,26,3.466c-5.143,0-9.415,3.756-10.243,8.667H15.167z M34.666,13.845
	c-6.254-0.22-10.399-2.778-10.399-5.179c0-0.478-0.387-0.866-0.867-0.866c-0.479,0-0.867,0.388-0.867,0.866
	c0,2.166-2.239,3.961-5.15,4.279C17.846,8.597,21.533,5.2,26,5.2C30.771,5.2,34.654,9.076,34.666,13.845z M17.333,18.2v-3.516
	c2.707-0.235,5.003-1.54,6.15-3.367c1.813,2.402,6.05,4.093,11.184,4.266V18.2c0,1.953-0.657,3.749-1.75,5.2H26v1.733h5.178
	c-0.498,0.373-1.034,0.693-1.606,0.954c-2.274,1.033-4.87,1.033-7.145,0C19.428,24.722,17.333,21.704,17.333,18.2z M23.321,28.237
	C24.177,28.466,25.073,28.6,26,28.6s1.823-0.133,2.679-0.362L26,33.595L23.321,28.237z M24.598,34.666h-1.529l-3.467-6.933h1.529
	L24.598,34.666z M30.869,27.733h1.528l-3.466,6.933h-1.529L30.869,27.733z M9.533,39v11.267h-2.6V39
	c0-6.036,4.775-10.964,10.744-11.24l3.454,6.906h-7.264C11.477,34.666,9.533,36.61,9.533,39z M40.733,50.266H11.267V39
	c0-1.433,1.167-2.6,2.6-2.6h8.667H26h3.467h8.667c1.434,0,2.6,1.167,2.6,2.6V50.266z M45.066,50.266h-2.6V39
	c0-2.39-1.944-4.333-4.333-4.333h-7.264l3.454-6.906c5.968,0.275,10.744,5.204,10.744,11.24V50.266z"/>
<path fill="#01e8fe" d="M37.267,42.466H39v6.066h-1.733V42.466z"/>
<path fill="#01e8fe" d="M37.267,39H39v1.733h-1.733V39z"/>
<path fill="#01e8fe" d="M45.066,7.8H46.8v1.733h-1.733V7.8z"/>
<path fill="#01e8fe" d="M45.066,11.266H46.8V13h-1.733V11.266z"/>
<path fill="#01e8fe" d="M45.066,14.733H46.8v1.733h-1.733V14.733z"/>
<path fill="#01e8fe" d="M5.2,18.2h1.733v1.733H5.2V18.2z"/>
<path fill="#01e8fe" d="M5.2,21.666h1.733v1.733H5.2V21.666z"/>
<path fill="#01e8fe" d="M5.2,25.133h1.733v1.733H5.2V25.133z"/>
</svg>
