<?xml version="1.0" encoding="utf-8"?>
<!-- Generator: Adobe Illustrator 15.0.0, SVG Export Plug-In . SVG Version: 6.00 Build 0)  -->
<!DOCTYPE svg PUBLIC "-//W3C//DTD SVG 1.1//EN" "http://www.w3.org/Graphics/SVG/1.1/DTD/svg11.dtd">
<svg version="1.1" id="Layer_1" xmlns="http://www.w3.org/2000/svg" xmlns:xlink="http://www.w3.org/1999/xlink" x="0px" y="0px"
	 width="52px" height="52px" viewBox="230 230 52 52" enable-background="new 230 230 52 52" xml:space="preserve">
<title>034 - Life Insurance</title>
<desc>Created with Sketch.</desc>
<g id="Page-1">
	<g id="_x30_34---Life-Insurance">
		<path id="Shape" fill="#01E8FE" d="M240.971,272.107c-0.3,0.318-0.468,0.739-0.468,1.176v6.914c0,0.954,0.773,1.729,1.728,1.729
			h9.506c0.955,0,1.729-0.774,1.729-1.729v-6.914c0-0.954-0.774-1.729-1.729-1.729v-1.607c0.026-2.047-0.642-4.043-1.895-5.661
			c-0.735-0.966-1.736-1.697-2.88-2.101c-1.82-0.766-3.494-1.839-4.947-3.175c-1.349-1.112-3.267-1.212-4.723-0.246l-1.869-4.368
			c-0.398-0.9-1.246-1.521-2.224-1.627c-0.979-0.106-1.939,0.318-2.521,1.113c-0.581,0.795-0.694,1.838-0.297,2.739l3.387,7.451
			c0.457,1.008,1.093,1.926,1.876,2.707L240.971,272.107z M251.737,280.197h-9.506v-6.914h9.506V280.197z M231.954,255.907
			c-0.144-0.317-0.118-0.687,0.072-0.981c0.188-0.294,0.514-0.472,0.863-0.472c0.411,0,0.783,0.245,0.944,0.624l1.933,4.509
			c0.514,1.203,1.253,2.296,2.18,3.219l3.948,3.948c0.217,0.225,0.538,0.315,0.84,0.236c0.302-0.08,0.538-0.316,0.617-0.618
			s-0.011-0.624-0.236-0.84l-3.947-3.949c-0.397-0.396-0.754-0.83-1.066-1.297c0.83-0.638,1.991-0.618,2.799,0.048
			c1.615,1.482,3.483,2.665,5.514,3.492c0.828,0.301,1.549,0.835,2.078,1.541c1.007,1.311,1.541,2.926,1.516,4.58v1.607h-7.146
			l-5.996-5.996c-0.637-0.635-1.154-1.381-1.525-2.2L231.954,255.907z"/>
		<path id="Shape_1_" fill="#01E8FE" d="M249.145,275.876h-0.865c-0.477,0-0.864,0.388-0.864,0.865c0,0.477,0.387,0.863,0.864,0.863
			h0.865c0.477,0,0.864-0.387,0.864-0.863C250.009,276.264,249.622,275.876,249.145,275.876z"/>
		<path id="Shape_2_" fill="#01E8FE" d="M279.228,252.727c-1.103-0.001-2.1,0.656-2.533,1.67l-1.865,4.351
			c-1.462-0.96-3.379-0.855-4.728,0.26c-1.454,1.336-3.127,2.41-4.947,3.175c-1.146,0.403-2.146,1.135-2.881,2.101
			c-1.253,1.619-1.922,3.615-1.895,5.664v1.607c-0.954,0-1.729,0.774-1.729,1.729v6.914c0,0.954,0.774,1.729,1.729,1.729h9.506
			c0.955,0,1.729-0.774,1.729-1.729v-6.914c-0.001-0.437-0.169-0.857-0.47-1.176l5.327-5.327c0.783-0.781,1.42-1.699,1.876-2.707
			l3.387-7.451c0.389-0.853,0.316-1.844-0.189-2.632c-0.507-0.788-1.38-1.264-2.315-1.264H279.228z M269.885,280.197h-9.506v-6.914
			h9.506V280.197z M280.161,255.907l-3.386,7.451c-0.373,0.819-0.888,1.565-1.525,2.2l-5.996,5.996h-7.146v-1.607
			c-0.025-1.654,0.508-3.27,1.516-4.58c0.526-0.705,1.247-1.239,2.074-1.541c2.03-0.827,3.898-2.01,5.514-3.492
			c0.808-0.671,1.973-0.694,2.804-0.055c-0.313,0.47-0.67,0.906-1.07,1.305l-3.948,3.949c-0.326,0.339-0.321,0.878,0.012,1.211
			c0.333,0.334,0.872,0.338,1.211,0.011l3.948-3.948c0.927-0.923,1.666-2.016,2.18-3.219l1.933-4.51
			c0.163-0.378,0.533-0.623,0.944-0.623c0.35,0,0.674,0.178,0.862,0.472c0.19,0.294,0.217,0.663,0.072,0.981L280.161,255.907z"/>
		<path id="Shape_3_" fill="#01E8FE" d="M263.835,275.876h-0.862c-0.479,0-0.865,0.388-0.865,0.865c0,0.477,0.387,0.863,0.865,0.863
			h0.862c0.478,0,0.865-0.387,0.865-0.863C264.7,276.264,264.313,275.876,263.835,275.876z"/>
		<path id="Shape_4_" fill="#01E8FE" d="M265.628,230.072c-3.793-0.022-7.361,1.798-9.57,4.882c-2.208-3.084-5.776-4.905-9.57-4.882
			c-6.891,0-11.171,4.367-11.171,11.397c-0.018,1.713,0.275,3.415,0.865,5.023h-4.321c-0.478,0-0.865,0.387-0.865,0.864
			s0.387,0.864,0.865,0.864h5.112c1.248,2.041,2.837,3.851,4.7,5.352c0.442,0.394,0.872,0.777,1.273,1.161
			c2.938,2.8,12.177,10.263,12.569,10.579c0.317,0.257,0.769,0.257,1.085,0c0.393-0.315,9.632-7.777,12.568-10.579
			c0.402-0.383,0.833-0.767,1.275-1.161c1.861-1.501,3.452-3.312,4.699-5.352h5.113c0.478,0,0.863-0.387,0.863-0.864
			s-0.386-0.864-0.863-0.864h-4.317c0.588-1.609,0.879-3.311,0.86-5.023C276.8,234.439,272.52,230.072,265.628,230.072z
			 M237.045,241.47c0-6.055,3.529-9.669,9.442-9.669c3.654-0.012,7.025,1.962,8.805,5.154c0.164,0.266,0.454,0.427,0.766,0.427
			s0.602-0.162,0.766-0.427c1.778-3.192,5.15-5.166,8.804-5.154c5.913,0,9.442,3.614,9.442,9.669
			c0.027,1.727-0.316,3.439-1.006,5.023h-5.043c-0.351,0-0.667,0.211-0.8,0.536l-0.963-3.371c-0.106-0.368-0.442-0.621-0.825-0.623
			h-0.006c-0.38,0-0.717,0.25-0.827,0.616l-1.625,5.417l-1.887-8.807c-0.084-0.394-0.429-0.677-0.83-0.684
			c-0.401-0.007-0.757,0.264-0.854,0.654l-1.565,6.26h-4.51c-0.351,0-0.667,0.211-0.799,0.536l-0.963-3.371
			c-0.106-0.368-0.442-0.621-0.825-0.623c-0.389-0.02-0.738,0.238-0.833,0.616l-1.625,5.417l-1.888-8.807
			c-0.083-0.394-0.428-0.677-0.831-0.684c-0.405-0.015-0.762,0.26-0.854,0.654l-1.564,6.26h-6.097
			C237.362,244.909,237.019,243.197,237.045,241.47z M269.293,252.283c-0.457,0.408-0.901,0.804-1.316,1.2
			c-2.483,2.369-9.853,8.371-11.918,10.046c-2.065-1.675-9.435-7.677-11.918-10.046c-0.416-0.396-0.86-0.792-1.316-1.2
			c-1.44-1.186-2.723-2.551-3.816-4.062h5.815c0.396,0,0.742-0.27,0.838-0.654l0.825-3.301l1.815,8.458
			c0.082,0.386,0.416,0.667,0.81,0.683c0.394,0.012,0.747-0.24,0.865-0.615l1.744-5.815l0.918,3.212
			c0.104,0.364,0.433,0.618,0.812,0.627c0.375-0.003,0.709-0.239,0.838-0.591l0.663-2.001h4.563c0.395,0,0.741-0.27,0.837-0.654
			l0.826-3.301l1.814,8.458c0.083,0.386,0.416,0.667,0.811,0.683h0.031c0.383,0,0.719-0.25,0.829-0.616l1.744-5.815l0.918,3.212
			c0.104,0.365,0.435,0.618,0.813,0.627c0.374-0.007,0.706-0.241,0.839-0.591l0.667-2h3.464
			C272.015,249.732,270.732,251.097,269.293,252.283z"/>
	</g>
</g>
</svg>
