<?xml version="1.0" encoding="utf-8"?>
<!-- Generator: Adobe Illustrator 15.0.0, SVG Export Plug-In . SVG Version: 6.00 Build 0)  -->
<!DOCTYPE svg PUBLIC "-//W3C//DTD SVG 1.1//EN" "http://www.w3.org/Graphics/SVG/1.1/DTD/svg11.dtd">
<svg version="1.1" id="Layer_1" xmlns="http://www.w3.org/2000/svg" xmlns:xlink="http://www.w3.org/1999/xlink" x="0px" y="0px"
	 width="52px" height="52px" viewBox="0 0 52 52" enable-background="new 0 0 52 52" xml:space="preserve">
<path fill="#01e8fe" d="M52,23.4v-8.667c-0.005-0.041-0.013-0.08-0.024-0.12c0.002-0.029,0.002-0.058,0-0.086l-3.14-12.558
	C48.546,0.812,47.506,0,46.313,0H5.687C4.494,0,3.454,0.812,3.164,1.969L0.026,14.523c-0.001,0.029-0.001,0.058,0,0.086
	C0.014,14.65,0.005,14.691,0,14.733V23.4c0.004,1.37,0.657,2.656,1.76,3.467C0.657,27.678,0.004,28.964,0,30.333v5.2
	c0.004,1.37,0.657,2.656,1.76,3.467C0.657,39.811,0.004,41.097,0,42.467v5.2C0.003,50.059,1.941,51.997,4.333,52h43.333
	c2.392-0.003,4.331-1.941,4.333-4.333v-5.2c-0.004-1.37-0.657-2.656-1.76-3.467c1.104-0.811,1.756-2.097,1.76-3.467v-5.2
	c-0.004-1.37-0.657-2.656-1.76-3.467C51.343,26.056,51.996,24.77,52,23.4z M4.846,2.391c0.096-0.386,0.443-0.657,0.841-0.657h40.626
	c0.398,0,0.745,0.271,0.841,0.657l2.869,11.476H1.977L4.846,2.391z M50.267,42.467v5.2c0,1.436-1.164,2.6-2.6,2.6H4.333
	c-1.436,0-2.6-1.164-2.6-2.6v-5.2c0-1.436,1.164-2.6,2.6-2.6h43.333C49.103,39.867,50.267,41.031,50.267,42.467z M50.267,30.333v5.2
	c0,1.436-1.164,2.6-2.6,2.6H4.333c-1.436,0-2.6-1.164-2.6-2.6v-5.2c0-1.436,1.164-2.6,2.6-2.6h43.333
	C49.103,27.733,50.267,28.897,50.267,30.333z M50.267,23.4c0,1.436-1.164,2.6-2.6,2.6H4.333c-1.436,0-2.6-1.164-2.6-2.6v-7.8h48.533
	V23.4z"/>
<path fill="#01e8fe" d="M6.933,24.267c1.915,0,3.467-1.552,3.467-3.466s-1.552-3.467-3.467-3.467c-1.914,0-3.466,1.552-3.466,3.467
	S5.019,24.267,6.933,24.267z M6.933,19.067c0.958,0,1.733,0.776,1.733,1.733c0,0.957-0.776,1.733-1.733,1.733
	c-0.957,0-1.733-0.776-1.733-1.733C5.2,19.843,5.976,19.067,6.933,19.067z"/>
<path fill="#01e8fe" d="M13,21.667h10.4c0.479,0,0.867-0.388,0.867-0.867c0-0.479-0.388-0.867-0.867-0.867H13
	c-0.479,0-0.867,0.388-0.867,0.867C12.133,21.279,12.521,21.667,13,21.667z"/>
<path fill="#01e8fe" d="M6.933,29.467c-1.914,0-3.466,1.552-3.466,3.467S5.019,36.4,6.933,36.4c1.915,0,3.467-1.552,3.467-3.466
	S8.848,29.467,6.933,29.467z M6.933,34.667c-0.957,0-1.733-0.776-1.733-1.733c0-0.958,0.776-1.733,1.733-1.733
	c0.958,0,1.733,0.776,1.733,1.733C8.667,33.891,7.891,34.667,6.933,34.667z"/>
<path fill="#01e8fe" d="M23.4,32.067H13c-0.479,0-0.867,0.388-0.867,0.867c0,0.479,0.388,0.867,0.867,0.867h10.4
	c0.479,0,0.867-0.388,0.867-0.867C24.267,32.455,23.878,32.067,23.4,32.067z"/>
<path fill="#01e8fe" d="M6.933,41.6c-1.914,0-3.466,1.552-3.466,3.467s1.552,3.466,3.466,3.466c1.915,0,3.467-1.552,3.467-3.466
	S8.848,41.6,6.933,41.6z M6.933,46.8c-0.957,0-1.733-0.776-1.733-1.733c0-0.958,0.776-1.733,1.733-1.733
	c0.958,0,1.733,0.776,1.733,1.733C8.667,46.024,7.891,46.8,6.933,46.8z"/>
<path fill="#01e8fe" d="M23.4,44.2H13c-0.479,0-0.867,0.388-0.867,0.867c0,0.479,0.388,0.867,0.867,0.867h10.4
	c0.479,0,0.867-0.388,0.867-0.867C24.267,44.588,23.878,44.2,23.4,44.2z"/>
<path fill="#01e8fe" d="M39,3.467H6.067C5.588,3.467,5.2,3.855,5.2,4.333S5.588,5.2,6.067,5.2H39c0.479,0,0.867-0.388,0.867-0.867
	S39.479,3.467,39,3.467z"/>
<path fill="#01e8fe" d="M45.933,3.467h-3.466c-0.479,0-0.867,0.388-0.867,0.867S41.988,5.2,42.467,5.2h3.466
	c0.479,0,0.867-0.388,0.867-0.867S46.412,3.467,45.933,3.467z"/>
<path fill="#01e8fe" d="M27.733,19.067h1.733v3.467h-1.733V19.067z"/>
<path fill="#01e8fe" d="M31.2,19.067h1.733v3.467H31.2V19.067z"/>
<path fill="#01e8fe" d="M34.667,19.067H36.4v3.467h-1.733V19.067z"/>
<path fill="#01e8fe" d="M38.133,19.067h1.733v3.467h-1.733V19.067z"/>
<path fill="#01e8fe" d="M41.6,19.067h1.733v3.467H41.6V19.067z"/>
<path fill="#01e8fe" d="M45.067,19.067H46.8v3.467h-1.733V19.067z"/>
<path fill="#01e8fe" d="M27.733,31.2h1.733v3.466h-1.733V31.2z"/>
<path fill="#01e8fe" d="M31.2,31.2h1.733v3.466H31.2V31.2z"/>
<path fill="#01e8fe" d="M34.667,31.2H36.4v3.466h-1.733V31.2z"/>
<path fill="#01e8fe" d="M38.133,31.2h1.733v3.466h-1.733V31.2z"/>
<path fill="#01e8fe" d="M41.6,31.2h1.733v3.466H41.6V31.2z"/>
<path fill="#01e8fe" d="M45.067,31.2H46.8v3.466h-1.733V31.2z"/>
<path fill="#01e8fe" d="M27.733,43.333h1.733V46.8h-1.733V43.333z"/>
<path fill="#01e8fe" d="M31.2,43.333h1.733V46.8H31.2V43.333z"/>
<path fill="#01e8fe" d="M34.667,43.333H36.4V46.8h-1.733V43.333z"/>
<path fill="#01e8fe" d="M38.133,43.333h1.733V46.8h-1.733V43.333z"/>
<path fill="#01e8fe" d="M41.6,43.333h1.733V46.8H41.6V43.333z"/>
<path fill="#01e8fe" d="M45.067,43.333H46.8V46.8h-1.733V43.333z"/>
</svg>
