<?xml version="1.0" encoding="utf-8"?>
<!-- Generator: Adobe Illustrator 15.0.0, SVG Export Plug-In . SVG Version: 6.00 Build 0)  -->
<!DOCTYPE svg PUBLIC "-//W3C//DTD SVG 1.1//EN" "http://www.w3.org/Graphics/SVG/1.1/DTD/svg11.dtd">
<svg version="1.1" id="Layer_1" xmlns="http://www.w3.org/2000/svg" xmlns:xlink="http://www.w3.org/1999/xlink" x="0px" y="0px"
	 width="52px" height="52px" viewBox="0 0 52 52" enable-background="new 0 0 52 52" xml:space="preserve">
<path fill="#01e8fe" d="M21.163,32.428l-1.911-0.635c-0.628-0.209-1.052-0.798-1.052-1.46c0-0.958,0.776-1.733,1.733-1.733
	c0.958,0,1.733,0.776,1.733,1.733H23.4c-0.006-1.576-1.074-2.95-2.6-3.344v-1.856h-1.733v1.856c-1.526,0.394-2.594,1.768-2.6,3.344
	c-0.001,1.409,0.9,2.66,2.237,3.104l1.911,0.635c0.629,0.209,1.053,0.798,1.052,1.46c0,0.958-0.776,1.734-1.733,1.734
	c-0.957,0-1.733-0.776-1.733-1.734h-1.733c0.006,1.576,1.074,2.95,2.6,3.344v1.856H20.8v-1.856c1.526-0.394,2.594-1.768,2.6-3.344
	C23.401,34.124,22.5,32.873,21.163,32.428z"/>
<path fill="#01e8fe" d="M51.133,19.066H33.613c-1.832-2.257-4.134-4.087-6.746-5.361V9.966l3.12-2.34
	c0.218-0.164,0.347-0.42,0.347-0.693V0.866C30.333,0.388,29.945,0,29.467,0H26c-0.23,0-0.45,0.091-0.613,0.254l-1.121,1.121
	l-1.121-1.121C22.983,0.091,22.763,0,22.533,0h-5.2c-0.229,0-0.45,0.091-0.612,0.254L15.6,1.374l-1.121-1.121
	C14.317,0.091,14.097,0,13.867,0H10.4C9.921,0,9.533,0.388,9.533,0.866v6.066c0,0.273,0.128,0.53,0.347,0.693L13,9.966v3.747
	C6.439,16.888,0,25.415,0,36.352c0,9.944,7.265,15.647,19.933,15.647c2.057,0.007,4.109-0.175,6.132-0.544
	c0.131,0.328,0.448,0.543,0.802,0.544h24.267c0.479,0,0.867-0.388,0.867-0.867v-31.2C52,19.454,51.612,19.066,51.133,19.066z
	 M11.267,6.5V1.733h2.241l1.479,1.479c0.338,0.338,0.887,0.338,1.226,0l1.479-1.479h4.482l1.479,1.479
	c0.338,0.338,0.887,0.338,1.226,0l1.479-1.479H28.6V6.5l-2.889,2.167H14.155L11.267,6.5z M25.133,10.399v2.6h-10.4v-2.6H25.133z
	 M26,40.276c-4.055,3.358-10.065,2.792-13.423-1.263C9.219,34.958,9.784,28.948,13.84,25.59c3.527-2.92,8.633-2.92,12.16,0V40.276
	L26,40.276z M26,19.933v3.516c-5.238-3.359-12.207-1.837-15.566,3.401c-3.359,5.237-1.837,12.207,3.401,15.566
	c3.707,2.377,8.459,2.377,12.166,0v7.289c-2,0.382-4.031,0.57-6.067,0.562c-5.472,0-18.2-1.355-18.2-13.914
	c0-8.292,4.97-18.608,13.29-21.619h9.827c2.452,0.931,4.656,2.414,6.442,4.333h-4.425C26.388,19.066,26,19.454,26,19.933z
	 M50.267,50.266H27.733V27.732h22.533V50.266z M50.267,25.999H27.733v-5.2h22.533V25.999z"/>
<path fill="#01e8fe" d="M33.8,29.466h-3.466c-0.479,0-0.867,0.388-0.867,0.867v3.467c0,0.479,0.388,0.867,0.867,0.867H33.8
	c0.479,0,0.867-0.388,0.867-0.867v-3.467C34.667,29.854,34.279,29.466,33.8,29.466z M32.933,32.933H31.2v-1.733h1.733V32.933z"/>
<path fill="#01e8fe" d="M40.733,29.466h-3.467c-0.479,0-0.867,0.388-0.867,0.867v3.467c0,0.479,0.388,0.867,0.867,0.867h3.467
	c0.479,0,0.867-0.388,0.867-0.867v-3.467C41.6,29.854,41.212,29.466,40.733,29.466z M39.867,32.933h-1.733v-1.733h1.733V32.933z"/>
<path fill="#01e8fe" d="M47.667,29.466H44.2c-0.479,0-0.867,0.388-0.867,0.867v3.467c0,0.479,0.388,0.867,0.867,0.867h3.466
	c0.479,0,0.867-0.388,0.867-0.867v-3.467C48.533,29.854,48.145,29.466,47.667,29.466z M46.8,32.933h-1.733v-1.733H46.8V32.933z"/>
<path fill="#01e8fe" d="M33.8,36.399h-3.466c-0.479,0-0.867,0.388-0.867,0.867v3.466c0,0.479,0.388,0.867,0.867,0.867H33.8
	c0.479,0,0.867-0.388,0.867-0.867v-3.466C34.667,36.787,34.279,36.399,33.8,36.399z M32.933,39.866H31.2v-1.734h1.733V39.866z"/>
<path fill="#01e8fe" d="M40.733,36.399h-3.467c-0.479,0-0.867,0.388-0.867,0.867v3.466c0,0.479,0.388,0.867,0.867,0.867h3.467
	c0.479,0,0.867-0.388,0.867-0.867v-3.466C41.6,36.787,41.212,36.399,40.733,36.399z M39.867,39.866h-1.733v-1.734h1.733V39.866z"/>
<path fill="#01e8fe" d="M33.8,43.333h-3.466c-0.479,0-0.867,0.388-0.867,0.867v3.467c0,0.479,0.388,0.867,0.867,0.867H33.8
	c0.479,0,0.867-0.388,0.867-0.867v-3.467C34.667,43.721,34.279,43.333,33.8,43.333z M32.933,46.799H31.2v-1.733h1.733V46.799z"/>
<path fill="#01e8fe" d="M40.733,43.333h-3.467c-0.479,0-0.867,0.388-0.867,0.867v3.467c0,0.479,0.388,0.867,0.867,0.867h3.467
	c0.479,0,0.867-0.388,0.867-0.867v-3.467C41.6,43.721,41.212,43.333,40.733,43.333z M39.867,46.799h-1.733v-1.733h1.733V46.799z"/>
<path fill="#01e8fe" d="M47.667,36.399H44.2c-0.479,0-0.867,0.388-0.867,0.867v10.4c0,0.479,0.388,0.867,0.867,0.867h3.466
	c0.479,0,0.867-0.388,0.867-0.867v-10.4C48.533,36.787,48.145,36.399,47.667,36.399z M46.8,46.799h-1.733v-8.667H46.8V46.799z"/>
<path fill="#01e8fe" d="M46.8,22.533h1.733v1.733H46.8V22.533z"/>
<path fill="#01e8fe" d="M43.333,22.533h1.733v1.733h-1.733V22.533z"/>
<path fill="#01e8fe" d="M39.867,22.533H41.6v1.733h-1.733V22.533z"/>
</svg>
