<?xml version="1.0" encoding="utf-8"?>
<!-- Generator: Adobe Illustrator 15.0.0, SVG Export Plug-In . SVG Version: 6.00 Build 0)  -->
<!DOCTYPE svg PUBLIC "-//W3C//DTD SVG 1.1//EN" "http://www.w3.org/Graphics/SVG/1.1/DTD/svg11.dtd">
<svg version="1.1" id="Layer_1" xmlns="http://www.w3.org/2000/svg" xmlns:xlink="http://www.w3.org/1999/xlink" x="0px" y="0px"
	 width="52px" height="52px" viewBox="0 0 52 52" enable-background="new 0 0 52 52" xml:space="preserve">
<path fill="#01e8fe" d="M44.891,20.313c-0.561,0-1.016,0.455-1.016,1.016s0.455,1.016,1.016,1.016s1.016-0.455,1.016-1.016
	S45.451,20.313,44.891,20.313z"/>
<path fill="#01e8fe" d="M44.891,45.906c-0.561,0-1.016,0.455-1.016,1.016s0.455,1.016,1.016,1.016s1.016-0.455,1.016-1.016
	S45.451,45.906,44.891,45.906z"/>
<path fill="#01e8fe" d="M49.969,27.19v-7.894c0-1.68-1.367-3.047-3.047-3.047h-1.016v-5.078c0-1.68-1.367-3.047-3.047-3.047h-5.688
	V1.016C37.172,0.455,36.717,0,36.156,0H11.781c-0.561,0-1.016,0.455-1.016,1.016v7.109H5.078C2.278,8.125,0,10.403,0,13.203v7.009
	c0,0,0,0.001,0,0.001v25.592c0,0,0,0.001,0,0.001v1.115C0,49.722,2.278,52,5.078,52h41.844c1.68,0,3.047-1.367,3.047-3.047V41.06
	C51.151,40.641,52,39.512,52,38.188v-8.125C52,28.738,51.151,27.609,49.969,27.19z M37.172,10.156h5.688
	c0.56,0,1.016,0.456,1.016,1.016v5.078h-6.703V10.156z M24.984,2.031h10.156V16.25h-2.031v-3.047c0-0.561-0.455-1.016-1.016-1.016
	s-1.016,0.455-1.016,1.016v3.047h-6.094V2.031z M18.891,2.031h4.063V16.25h-4.063V2.031z M12.797,2.031h4.063V16.25h-4.063V2.031z
	 M5.078,10.156h5.688v6.094H5.25c-1.421,0-2.678-0.834-3.057-2.03c-0.107-0.338-0.162-0.68-0.162-1.017
	C2.031,11.523,3.398,10.156,5.078,10.156z M47.938,48.953c0,0.56-0.456,1.016-1.016,1.016H5.078c-1.515,0-2.775-1.112-3.008-2.563
	c1.011,0.349,2.087,0.531,3.18,0.531h5.109c0.561,0,1.016-0.455,1.016-1.016s-0.455-1.016-1.016-1.016H5.25
	c-1.126,0-2.227-0.242-3.219-0.703V21.799c1.023,0.358,2.112,0.544,3.219,0.544h5.109c0.561,0,1.016-0.455,1.016-1.016
	s-0.455-1.016-1.016-1.016H5.25c-1.126,0-2.227-0.242-3.219-0.703v-2.364c0.898,0.652,2.025,1.036,3.219,1.036h6.531h24.375h8.734
	h2.031c0.56,0,1.016,0.456,1.016,1.016v7.719h-7.109c-1.898,0-3.684,0.739-5.028,2.082c-1.342,1.344-2.082,3.129-2.082,5.027
	c0,3.92,3.189,7.109,7.109,7.109h7.109V48.953z M49.969,38.188c0,0.56-0.456,1.016-1.016,1.016h-8.125
	c-2.8,0-5.078-2.278-5.078-5.078c0-1.356,0.528-2.631,1.487-3.591c0.96-0.959,2.235-1.487,3.591-1.487h8.125
	c0.56,0,1.016,0.456,1.016,1.016V38.188z"/>
<path fill="#01e8fe" d="M40.828,31.078c-1.68,0-3.047,1.367-3.047,3.047s1.367,3.047,3.047,3.047s3.047-1.367,3.047-3.047
	S42.508,31.078,40.828,31.078z M40.828,35.141c-0.56,0-1.016-0.456-1.016-1.016s0.456-1.016,1.016-1.016s1.016,0.456,1.016,1.016
	S41.388,35.141,40.828,35.141z"/>
<path fill="#01e8fe" d="M32.094,4.063c-0.561,0-1.016,0.455-1.016,1.016v4.063c0,0.561,0.455,1.016,1.016,1.016
	s1.016-0.455,1.016-1.016V5.078C33.109,4.517,32.655,4.063,32.094,4.063z"/>
<path fill="#01e8fe" d="M20.516,45.906h-6.094c-0.561,0-1.016,0.455-1.016,1.016s0.455,1.016,1.016,1.016h6.094
	c0.561,0,1.016-0.455,1.016-1.016S21.077,45.906,20.516,45.906z"/>
<path fill="#01e8fe" d="M30.672,45.906h-6.094c-0.561,0-1.016,0.455-1.016,1.016s0.455,1.016,1.016,1.016h6.094
	c0.561,0,1.016-0.455,1.016-1.016S31.233,45.906,30.672,45.906z"/>
<path fill="#01e8fe" d="M40.828,45.906h-6.094c-0.561,0-1.016,0.455-1.016,1.016s0.455,1.016,1.016,1.016h6.094
	c0.561,0,1.016-0.455,1.016-1.016S41.389,45.906,40.828,45.906z"/>
<path fill="#01e8fe" d="M20.516,20.313h-6.094c-0.561,0-1.016,0.455-1.016,1.016s0.455,1.016,1.016,1.016h6.094
	c0.561,0,1.016-0.455,1.016-1.016S21.077,20.313,20.516,20.313z"/>
<path fill="#01e8fe" d="M30.672,20.313h-6.094c-0.561,0-1.016,0.455-1.016,1.016s0.455,1.016,1.016,1.016h6.094
	c0.561,0,1.016-0.455,1.016-1.016S31.233,20.313,30.672,20.313z"/>
<path fill="#01e8fe" d="M40.828,20.313h-6.094c-0.561,0-1.016,0.455-1.016,1.016s0.455,1.016,1.016,1.016h6.094
	c0.561,0,1.016-0.455,1.016-1.016S41.389,20.313,40.828,20.313z"/>
</svg>
